<svg width="901" height="194" viewBox="0 0 901 194" fill="none" xmlns="http://www.w3.org/2000/svg">
<path fill-rule="evenodd" clip-rule="evenodd" d="M563 18C563 27.9411 554.941 36 545 36C535.059 36 527 27.9411 527 18C527 8.05887 535.059 0 545 0C554.941 0 563 8.05887 563 18ZM663 36C672.941 36 681 27.9411 681 18C681 8.05887 672.941 0 663 0C653.059 0 645 8.05887 645 18C645 27.9411 653.059 36 663 36ZM807 193C816.941 193 825 184.941 825 175C825 165.059 816.941 157 807 157C797.059 157 789 165.059 789 175C789 184.941 797.059 193 807 193ZM380 193C389.941 193 398 184.941 398 175C398 165.059 389.941 157 380 157C370.059 157 362 165.059 362 175C362 184.941 370.059 193 380 193ZM595 175C595 184.941 586.941 193 577 193C567.059 193 559 184.941 559 175C559 165.059 567.059 157 577 157C586.941 157 595 165.059 595 175ZM251.333 13.5836C252.4 9.05028 258.533 2.65028 263.067 1.31694C268.667 -0.283051 318.533 -0.416382 334.4 1.18361C363.867 3.98361 382.533 18.3836 389.6 43.7169C394 59.7169 392.4 77.8503 385.2 92.117C381.333 99.8503 372.933 109.45 366.667 113.45C365.196 114.333 364.375 114.826 364.121 115.525C363.8 116.41 364.392 117.626 365.733 120.384C371.867 133.184 363.867 146.517 350 146.517C342.533 146.517 338.133 143.317 332.133 133.85L326.533 125.05L306.933 125.45L287.333 125.85L286.667 153.45C285.867 184.384 285.467 186.117 275.467 191.05C268.933 194.25 262.533 193.05 256.267 187.184L251.333 182.784L250.933 99.5836C250.8 53.8503 250.933 15.1836 251.333 13.5836ZM354.667 54.5169C352.667 47.0503 345.067 39.3169 338 37.3169C330.133 35.1836 288.133 35.3169 287.2 37.5836C286.933 38.5169 286.8 51.4503 286.933 66.3836L287.333 93.5836L311.2 93.3169C335.867 93.0503 341.333 91.9836 347.067 86.7836C354.133 80.5169 357.6 65.4503 354.667 54.5169ZM426 1.05025C412.4 4.51692 406.533 17.3169 413.733 27.9836C419.067 35.9836 423.333 37.1836 446.933 37.1836H467.867L468.267 108.917L468.667 180.784L472.267 185.45C481.2 197.184 498 194.65 503.333 180.784C505.2 175.85 505.333 166.117 505.067 94.5169C505.056 92.0599 505.045 89.6735 505.035 87.3554L505.035 87.3002C504.737 20.0139 504.695 10.3865 499.88 6.01616C499.076 5.28645 498.139 4.7033 497.046 4.02279L497.046 4.02238L497.04 4.01885C496.749 3.83777 496.447 3.64977 496.133 3.45026C491.6 0.650253 489.867 0.516922 460.667 0.250244C443.867 0.116913 428.267 0.516922 426 1.05025ZM740.4 5.31693C742.267 3.58359 745.867 1.71693 748.267 1.18359C754.533 -0.283066 789.733 -0.283066 809.333 1.18359C840.133 3.58359 857.467 10.6503 874.8 27.8503C890 42.9169 897.067 59.0503 900.133 86.1169C903.2 113.717 893.733 144.917 876.933 163.45C868.8 172.25 864.667 174.517 856.533 174.517C851.067 174.517 849.733 173.85 845.2 169.317C840.8 164.917 840 163.317 840 158.65C840 151.984 841.2 149.45 848.667 140.517C860.8 125.85 864 116.517 864 95.9836C864 67.9836 855.733 52.5169 835.333 42.2503C824.8 36.9169 816.133 35.5836 792.667 36.1169L771.333 36.5169L770.667 108.784C770 179.184 769.867 181.05 767.2 184.784C763.2 190.25 756.4 193.45 750.267 192.65C743.333 191.85 738.933 188.65 735.867 182.117C733.467 176.784 733.333 172.117 733.333 96.7836L733.333 92.1783V92.1759C733.331 22.3018 733.331 13.2094 737.81 7.88706C738.48 7.0911 739.25 6.37945 740.136 5.56142L740.136 5.56091L740.4 5.31693ZM68.4 4.11691C67.7333 5.05025 64.5333 23.1836 61.6 44.3836C58.5333 65.5836 55.7333 83.3169 55.3333 83.5836C54.9333 83.9836 53.3333 83.0503 51.6 81.5836C48.5333 78.6503 33.4667 74.1169 29.3333 74.7836C26.5333 75.1836 0 108.117 0 110.917C0 111.984 0.8 113.584 1.86667 114.384C3.2 115.584 6.13333 114.784 14.6667 111.184C20.8 108.517 26.1333 106.917 26.6667 107.45C27.0667 107.984 29.4667 120.384 31.8667 134.917C36.1333 160.65 36.2667 161.584 34 165.717L31.6 170.117L37.3333 177.584C40.4 181.85 43.7333 185.184 44.8 185.184C45.7333 185.184 47.7333 186.917 49.3333 189.184C50.9333 191.317 53.0667 193.184 54 193.184C55.0667 193.184 63.2 190.517 72.1333 187.184L88.4 181.184H151.467C204.8 181.184 214.533 180.917 216 179.184C216.8 178.117 217.333 176.384 217.067 175.45C216.8 174.384 205.6 161.584 192.133 147.184L167.467 120.917L170.533 89.9836C170.852 86.8737 171.192 83.5254 171.546 80.0536L171.547 80.0453L171.547 80.0396C173.118 64.6107 174.936 46.7453 176.133 36.5169C178.267 16.5169 178.4 13.5836 176.667 11.8503C175.2 10.3836 174 10.2502 172.4 11.3169C171.2 11.9836 162.933 27.8503 153.867 46.5169C144.8 65.0502 136.933 80.7836 136.4 81.3169C135.733 81.9836 121.467 64.3836 104.667 42.5169C86.8 19.1836 73.0667 2.51692 71.8667 2.51692C70.6667 2.51692 69.0667 3.31691 68.4 4.11691ZM84.6667 30.1169C87.4667 34.5169 119.467 76.2503 126.933 85.4503L132.133 91.7169L129.2 97.4503C124.8 106.25 124.533 106.384 118.533 105.05C115.6 104.384 109.733 103.584 105.6 103.317L98 102.784L95.8667 93.5836C91.6289 76.0046 87.3911 58.2409 84.4583 45.9472L84.4573 45.9433C82.4078 37.3522 80.9957 31.4333 80.6667 30.1169C80.1333 27.9836 80.2667 26.5169 81.0667 26.5169C81.7333 26.5169 83.4667 28.1169 84.6667 30.1169ZM73.8667 35.4503C74.1333 36.7836 74.8 39.9836 75.3333 42.5169C75.8667 45.0502 79.6 61.5836 83.6 79.0503L91.0667 110.917L86.5333 114.65C84.1333 116.65 81.6 117.984 81.0667 117.717C80.5333 117.317 76.2667 112.117 71.4667 105.85L62.8 94.6503L66.6667 68.2503C68.8 53.7169 70.6667 39.8503 70.6667 37.4503C70.6667 32.9169 72.6667 31.5836 73.8667 35.4503ZM166.133 49.4503C165.6 54.1169 164 69.5836 162.533 83.8503C161.067 98.1169 159.333 110.384 158.8 110.917C158.267 111.45 156.667 110.517 155.467 108.65C152.267 103.717 148.533 104.384 140.4 111.317C135.067 115.85 132.8 117.05 131.6 115.984C130.267 114.917 132.933 108.384 144 86.2503C151.733 70.6503 159.733 54.1169 161.867 49.4503C163.867 44.9169 165.867 41.1836 166.267 41.1836C166.667 41.1836 166.667 44.9169 166.133 49.4503ZM62.2667 107.984C70.9333 118.917 78.8 129.317 79.7333 130.917C81.3333 133.584 80.4 135.584 69.4667 154.384C62.8 165.717 57.3333 175.584 57.3333 176.117C57.3333 176.65 56.8 177.184 56.1333 177.184C55.4667 177.184 54.5333 174.65 54 171.584C52.8 164.117 47.4667 133.184 43.2 110.117C41.3333 99.9836 40.1333 90.7836 40.5333 89.7169C42.5333 84.5169 46.9333 88.2503 62.2667 107.984ZM31.3333 94.5169C31.7333 95.1836 31.2 95.8503 30 95.8503C28.8 95.8503 28.2667 95.1836 28.6667 94.5169C29.0667 93.7169 29.7333 93.1836 30 93.1836C30.2667 93.1836 30.9333 93.7169 31.3333 94.5169ZM117.733 118.517C121.867 120.384 125.333 122.384 125.2 123.184C125.2 124.384 114.667 133.45 112.133 134.25C111.6 134.384 110.667 131.984 110.133 128.917C109.974 127.961 109.803 126.885 109.627 125.78L109.626 125.777L109.626 125.776C109.213 123.184 108.774 120.426 108.4 118.65C108 115.984 108.133 114.384 108.933 114.65C109.6 114.917 113.6 116.65 117.733 118.517ZM174.4 140.384C196.267 163.85 201.067 169.85 194.8 166.65C193.6 165.984 176.8 160.517 157.333 154.517C145.856 150.979 135.352 147.766 128.499 145.67C123.729 144.211 120.728 143.293 120.4 143.184C117.2 142.117 118.667 140.384 131.067 130.117C137.867 124.517 144.667 118.784 146 117.184C147.333 115.717 148.8 114.517 149.333 114.517C149.867 114.517 161.2 126.117 174.4 140.384ZM101.867 128.784C102.4 133.05 102.933 137.717 103.067 139.317C103.2 141.45 99.3333 145.584 87.7333 155.584C79.2 162.917 72 168.65 71.6 168.384C71.2 167.984 74.6667 161.584 79.2 154.117C83.8667 146.65 90.1333 135.85 93.2 130.117C96.4 124.517 99.3333 120.117 99.8667 120.517C100.533 120.784 101.333 124.517 101.867 128.784ZM141.733 158.384C158 163.584 173.867 168.384 177.067 169.184C180.133 169.984 182.667 171.05 182.667 171.584C182.667 172.117 163.467 172.517 140 172.517C116.533 172.517 97.3333 172.117 97.3333 171.584C97.3333 169.184 110.133 149.184 111.6 149.184C111.867 149.184 125.467 153.317 141.733 158.384ZM89.0667 168.65C87.4667 172.117 80.4 176.65 78.9333 175.184C78 174.384 87.7333 165.317 89.6 165.184C90.1333 165.184 89.8667 166.784 89.0667 168.65ZM649.849 55.8501C650.887 54.8581 652.164 54.1156 653.733 53.1836C662.533 47.7169 674.8 51.3169 679.2 60.3836C681.067 64.3836 681.333 72.3836 681.333 122.117C681.333 176.384 681.2 179.45 678.667 183.45C671.467 195.317 654.8 195.984 647.867 184.65C645.467 180.784 645.333 176.917 645.333 122.117C645.333 69.563 645.245 60.2511 649.849 55.8501Z" fill="#223B67"/>
</svg>
